<svg xmlns="http://www.w3.org/2000/svg" xmlns:xlink="http://www.w3.org/1999/xlink" version="1.0" x="0px" y="0px" viewBox="0 0 24 24" enable-background="new 0 0 24 24" xml:space="preserve"><path d="M18.284,11.683c-0.039-0.34-0.076-0.682-0.189-1.061c-0.341-1.361-1.25-2.459-2.426-3.105  c-1.174-0.682-2.575-0.945-3.977-0.566l0.341,1.023c2.235-0.607,4.47,0.719,5.075,2.912c0.607,2.234-0.719,4.545-2.953,5.111  c-2.198,0.605-4.471-0.682-5.076-2.916c-0.152-0.566-0.19-1.172-0.077-1.738l1.44,1.588l0.795-0.719L8.927,9.751L8.548,9.373  L8.169,9.714l-2.463,2.27l0.721,0.758l1.439-1.287c-0.075,0.607-0.037,1.25,0.113,1.893c0.758,2.766,3.637,4.428,6.439,3.709  C16.845,16.414,18.435,14.105,18.284,11.683L18.284,11.683z"></path></svg>