<svg width="126" height="107" viewBox="0 0 126 107" fill="none" xmlns="http://www.w3.org/2000/svg">
<path d="M125.126 50.2904C124.731 46.8479 124.356 43.3851 123.212 39.5477C119.759 25.7676 110.556 14.6504 98.6486 8.10962C88.3391 2.1206 76.3006 -0.677163 64.0262 1.18941C60.9299 1.66026 59.216 4.88248 60.2064 7.8536V7.8536C61.1199 10.594 64.015 12.1043 66.8732 11.6863C87.7362 8.63513 107.548 21.667 113.219 42.2207C119.364 64.84 105.939 88.2389 83.3194 93.9696C61.0646 100.095 38.0505 87.0644 31.9249 64.4451C30.3859 58.7144 30.0011 52.5786 31.1453 46.8479L41.9619 58.7763C44.0412 61.0692 47.5847 61.2447 49.8803 59.1685V59.1685C52.0193 57.234 52.1549 53.9209 50.1811 51.818L30.3859 30.7289L30.2034 30.5469C28.1537 28.5026 24.8632 28.418 22.7111 30.3542V30.3542L2.61128 48.8791C-0.0482785 51.3302 -0.184936 55.4846 2.30778 58.1052V58.1052C3.84872 59.7252 6.39786 59.8282 8.06439 58.3377L19.6433 47.9819C18.8839 54.1277 19.2686 60.6381 20.7874 67.1485C28.4621 95.1542 57.612 111.982 85.9823 104.702C110.556 98.1917 126.654 74.8131 125.126 50.2904Z" fill="black"/>
</svg>
