<svg width="226" height="221" viewBox="0 0 226 221" fill="none" xmlns="http://www.w3.org/2000/svg">
<g clip-path="url(#clip0_17_3)">
<path d="M113 41.4375C62.2935 41.4375 21.1875 81.634 21.1875 131.219C21.1875 180.803 62.2935 221 113 221C163.707 221 204.813 180.803 204.813 131.219C204.813 81.634 163.707 41.4375 113 41.4375ZM113 207.188C70.1558 207.188 35.3125 173.101 35.3125 131.219C35.3125 89.3224 70.1563 55.25 113 55.25C155.83 55.25 190.688 89.3228 190.688 131.219C190.688 173.101 155.83 207.188 113 207.188ZM44.2647 42.4359C42.3199 39.1174 43.4785 34.9089 46.8443 32.9937L59.0933 26.0875C62.459 24.1719 66.7905 25.3049 68.7354 28.6234L73.9494 37.4513C75.2014 39.571 74.2566 42.3032 72.0106 43.3112C66.1948 45.9212 60.69 49.0658 55.538 52.679C53.5702 54.0591 50.8151 53.5322 49.5932 51.4624L44.2647 42.4359ZM176.409 51.4584C175.187 53.5295 172.429 54.0555 170.461 52.6739C165.314 49.0623 159.806 45.9192 153.99 43.3104C151.744 42.3028 150.799 39.5705 152.051 37.4506L157.266 28.623C159.21 25.3045 163.528 24.1714 166.921 26.0871L179.143 32.9933C182.522 34.9089 183.681 39.1174 181.736 42.4355L176.409 51.4584ZM91.8125 20.7188V6.90625C91.8125 3.08882 94.9712 0 98.875 0L127.125 0C131.029 0 134.188 3.08882 134.188 6.90625V20.7188C134.188 23.2645 132.783 25.4861 130.689 26.6839C128.902 27.7062 127.125 29.294 127.125 31.3528V31.3528C127.125 33.6167 125.124 35.3505 122.874 35.1061C119.623 34.7532 116.338 34.5312 113 34.5312C109.662 34.5312 106.377 34.7532 103.127 35.1061C100.876 35.3505 98.875 33.6167 98.875 31.3528V31.3528C98.875 29.294 97.0979 27.7062 95.3109 26.6839C93.2172 25.4861 91.8125 23.2645 91.8125 20.7188ZM109.099 86.2267C110.043 82.0752 115.957 82.0752 116.901 86.2266L127.026 130.781C127.092 131.072 127.127 131.37 127.118 131.668C126.875 139.095 120.654 145.031 113 145.031C105.347 145.031 99.1246 139.095 98.8824 131.668C98.8726 131.37 98.9084 131.072 98.9745 130.781L109.099 86.2267Z" fill="black"/>
</g>
<defs>
<clipPath id="clip0_17_3">
<rect width="226" height="221" fill="white"/>
</clipPath>
</defs>
</svg>
