<svg width="2244" height="2244" xmlns="http://www.w3.org/2000/svg" xmlns:xlink="http://www.w3.org/1999/xlink" xml:space="preserve" overflow="hidden"><defs><clipPath id="clip0"><rect x="1078" y="116" width="2244" height="2244"/></clipPath><linearGradient x1="1708.15" y1="-113.355" x2="2691.85" y2="2589.35" gradientUnits="userSpaceOnUse" spreadMethod="reflect" id="fill1"><stop offset="0" stop-color="#8ED973"/><stop offset="0.28" stop-color="#8ED973"/><stop offset="0.66088" stop-color="#3FDD86"/><stop offset="1" stop-color="#46B1E1"/></linearGradient></defs><g clip-path="url(#clip0)" transform="translate(-1078 -116)"><path d="M1078 790.905C1078 418.165 1380.17 116 1752.91 116L2647.09 116C3019.83 116 3322 418.165 3322 790.905L3322 1685.09C3322 2057.83 3019.83 2360 2647.09 2360L1752.91 2360C1380.17 2360 1078 2057.83 1078 1685.09Z" fill="url(#fill1)" fill-rule="evenodd"/><path d="M1530.5 1331.5C1530.5 964.783 1827.78 667.5 2194.5 667.5L2195.5 667.5C2562.22 667.5 2859.5 964.783 2859.5 1331.5L2859.5 1331.5C2859.5 1698.22 2562.22 1995.5 2195.5 1995.5L2194.5 1995.5C1827.78 1995.5 1530.5 1698.22 1530.5 1331.5Z" stroke="#042433" stroke-width="6.875" stroke-miterlimit="8" fill="#BFBFBF" fill-rule="evenodd"/><path d="M2045.78 583C2023.93 583 2005.62 575.622 1990.83 560.863 1976.05 546.104 1968.66 527.816 1968.66 506 1968.66 484.184 1976.05 465.896 1990.83 451.137 2005.62 436.379 2023.93 429 2045.78 429L2354.22 429C2376.07 429 2394.38 436.379 2409.17 451.137 2423.95 465.896 2431.34 484.184 2431.34 506 2431.34 527.816 2423.95 546.104 2409.17 560.863 2394.38 575.622 2376.07 583 2354.22 583L2045.78 583ZM2200 2046C2104.89 2046 2015.26 2027.71 1931.08 1991.14 1846.89 1954.56 1773.32 1904.83 1710.35 1841.94 1647.37 1779.07 1597.57 1705.61 1560.94 1621.54 1524.32 1537.48 1506 1447.96 1506 1353 1506 1258.03 1524.32 1168.53 1560.94 1084.47 1597.57 1000.41 1647.37 926.933 1710.35 864.048 1773.32 801.167 1846.89 751.438 1931.08 714.863 2015.26 678.287 2104.89 660 2200 660 2279.68 660 2356.15 672.834 2429.4 698.501 2502.66 724.167 2571.42 761.384 2635.68 810.151L2689.65 756.25C2703.79 742.133 2721.79 735.075 2743.64 735.075 2765.48 735.075 2783.48 742.133 2797.61 756.25 2811.75 770.366 2818.81 788.335 2818.81 810.151 2818.81 831.966 2811.75 849.938 2797.61 864.048L2743.64 917.955C2792.47 982.117 2829.74 1050.78 2855.45 1123.93 2881.15 1197.07 2894 1273.43 2894 1353 2894 1447.96 2875.69 1537.48 2839.05 1621.54 2802.44 1705.61 2752.63 1779.07 2689.65 1841.94 2626.68 1904.83 2553.11 1954.56 2468.92 1991.14 2384.74 2027.71 2295.11 2046 2200 2046ZM2200 1891.99C2349.08 1891.99 2476.31 1839.38 2581.7 1734.16 2687.09 1628.92 2739.78 1501.87 2739.78 1353 2739.78 1204.14 2687.09 1077.09 2581.7 971.852 2476.31 866.615 2349.08 814 2200 814 2050.92 814 1923.69 866.615 1818.3 971.852 1712.91 1077.09 1660.22 1204.14 1660.22 1353 1660.22 1501.87 1712.91 1628.92 1818.3 1734.16 1923.69 1839.38 2050.92 1891.99 2200 1891.99Z" fill="#262626" fill-rule="evenodd"/><path d="M1833.39 1152.99C1815.93 1138.76 1811.86 1113.74 1823.9 1094.72L1823.9 1094.72C1835.95 1075.69 1860.32 1068.65 1880.67 1078.32L2215.1 1237.34C2262.67 1259.96 2280.37 1318.63 2253.24 1363.75L2253.24 1363.75C2225.25 1410.3 2162.48 1421.24 2120.38 1386.92L1833.39 1152.99Z" fill="#262626" fill-rule="evenodd"/></g></svg>